#define door_width 32
#define door_height 32
static unsigned char door_bits[] = {
  0x80, 0xFF, 0xFF, 0x01, 0xC0, 0x00, 0x00, 0x03, 0x40, 0x00, 0x00, 0x02, 
  0x40, 0x00, 0x00, 0x02, 0x40, 0x00, 0x00, 0x02, 0x40, 0x00, 0x00, 0x02, 
  0x40, 0x00, 0x00, 0x02, 0x40, 0x00, 0x00, 0x02, 0x40, 0x00, 0x00, 0x02, 
  0x40, 0x00, 0x00, 0x02, 0x40, 0x00, 0x00, 0x02, 0x40, 0x00, 0x00, 0x02, 
  0x40, 0x00, 0x38, 0x02, 0x40, 0x00, 0x6C, 0x02, 0x40, 0x00, 0x44, 0x02, 
  0x40, 0x00, 0x4C, 0x02, 0x40, 0x00, 0x78, 0x02, 0x40, 0x00, 0x00, 0x02, 
  0x40, 0x00, 0x00, 0x02, 0x40, 0x00, 0x00, 0x02, 0x40, 0x00, 0x00, 0x02, 
  0x40, 0x00, 0x00, 0x02, 0x40, 0x00, 0x00, 0x02, 0x40, 0x00, 0x00, 0x02, 
  0x40, 0x00, 0x00, 0x02, 0x40, 0x00, 0x00, 0x02, 0xC0, 0x00, 0x00, 0x03, 
  0xF0, 0xFF, 0xFF, 0x0F, 0x18, 0x00, 0x00, 0x18, 0x18, 0x00, 0x00, 0x18, 
  0x18, 0x00, 0x00, 0x18, 0xF0, 0xFF, 0xFF, 0x0F, };
