#define mqtt_width 20
#define mqtt_height 20
static unsigned char mqtt_bits[] = {
  0xFF, 0xC1, 0x0F, 0xFF, 0x87, 0x0F, 0xFF, 0x1F, 0x0F, 0xE0, 0x3F, 0x0E, 
  0x80, 0xFF, 0x0C, 0x0F, 0xFC, 0x09, 0x7F, 0xF8, 0x01, 0xFE, 0xF1, 0x03, 
  0xFF, 0xE3, 0x07, 0xFC, 0xCF, 0x0F, 0xE0, 0x9F, 0x0F, 0x83, 0x1F, 0x0F, 
  0x1F, 0x3F, 0x0F, 0x3F, 0x3E, 0x0E, 0xFF, 0x7C, 0x0E, 0xFF, 0x7C, 0x0E, 
  0xFF, 0xF9, 0x0C, 0xFF, 0xF9, 0x0C, 0xFF, 0xF3, 0x0C, 0xFF, 0xF3, 0x0C, 
  };
