#define ntp_width 20
#define ntp_height 20
static unsigned char ntp_bits[] = {
   0x00, 0x00, 0x00, 0x00, 0x00, 0x00, 0x00, 0x00, 0x00, 0x00, 0x00, 0x00,
   0x00, 0x00, 0x00, 0xb3, 0xdf, 0x07, 0xb3, 0xdf, 0x0f, 0x37, 0xc6, 0x0c,
   0x37, 0xc6, 0x0c, 0x3b, 0xc6, 0x0f, 0x3b, 0xc6, 0x07, 0x33, 0xc6, 0x00,
   0x33, 0xc6, 0x00, 0x00, 0x00, 0x00, 0x00, 0x00, 0x00, 0x00, 0x00, 0x00,
   0x00, 0x00, 0x00, 0x00, 0x00, 0x00, 0x00, 0x00, 0x00, 0x00, 0x00, 0x00 };
