#define wifi_width 20
#define wifi_height 20
static unsigned char wifi_bits[] = {
   0x00, 0x00, 0x00, 0x00, 0x00, 0x00, 0x00, 0x00, 0x00, 0xe0, 0x7f, 0x00,
   0xf8, 0xff, 0x00, 0x3e, 0xc0, 0x07, 0x07, 0x00, 0x0f, 0xc3, 0x3f, 0x0c,
   0xe0, 0x7f, 0x00, 0x38, 0xc0, 0x01, 0x18, 0x80, 0x01, 0x80, 0x1f, 0x00,
   0xc0, 0x39, 0x00, 0x00, 0x00, 0x00, 0x00, 0x00, 0x00, 0x00, 0x06, 0x00,
   0x00, 0x06, 0x00, 0x00, 0x00, 0x00, 0x00, 0x00, 0x00, 0x00, 0x00, 0x00 };
